<?xml version="1.0" standalone="no"?>
<!DOCTYPE svg PUBLIC "-//W3C//DTD SVG 20010904//EN"
 "http://www.w3.org/TR/2001/REC-SVG-20010904/DTD/svg10.dtd">
<svg version="1.0" xmlns="http://www.w3.org/2000/svg"
 width="700.000000pt" height="700.000000pt" viewBox="0 0 700.000000 700.000000"
 preserveAspectRatio="xMidYMid meet">
<metadata>
Created by potrace 1.14, written by Peter Selinger 2001-2017
</metadata>
<g transform="translate(0.000000,700.000000) scale(0.100000,-0.100000)"
fill="#000000" stroke="none">
<path d="M4175 6889 c-64 -44 -115 -118 -115 -169 0 -23 12 -61 30 -95 34 -65
37 -93 14 -137 -16 -30 -15 -86 1 -137 l8 -23 -109 8 c-152 12 -422 10 -528
-5 -201 -28 -435 -97 -636 -188 -87 -39 -254 -124 -270 -137 -29 -24 -156 -96
-169 -96 -30 0 28 97 150 250 114 142 123 191 55 289 -20 29 -36 57 -36 62 0
4 9 31 20 59 23 58 26 110 8 143 -20 35 -81 97 -110 113 -86 45 -253 -20 -399
-155 -130 -119 -230 -272 -283 -432 -52 -155 -67 -238 -73 -399 -5 -146 -4
-158 16 -199 32 -63 26 -79 -54 -134 -214 -147 -411 -348 -533 -547 -69 -113
-192 -408 -192 -463 0 -6 -18 -41 -40 -77 -72 -119 -144 -320 -175 -488 -18
-96 -30 -134 -55 -174 -88 -143 -165 -338 -200 -511 -48 -236 -5 -544 103
-740 20 -36 22 -37 81 -37 34 0 71 -3 84 -6 21 -6 20 -2 -17 72 -120 240 -155
470 -110 723 13 73 68 242 84 260 16 16 19 8 35 -99 37 -238 170 -575 320
-808 27 -43 59 -99 70 -126 17 -36 25 -46 38 -41 9 3 30 9 45 12 16 3 31 12
34 19 2 7 18 16 34 19 16 4 29 10 29 15 0 4 -11 33 -25 64 -34 77 -87 231
-120 351 -15 55 -31 104 -35 108 -4 4 -18 3 -32 -2 -25 -9 -25 -8 -37 57 -27
154 -41 304 -41 429 0 141 16 322 30 336 4 5 21 2 38 -7 17 -9 37 -13 46 -10
20 8 56 -31 56 -60 0 -34 39 -87 91 -121 l46 -30 6 -185 c8 -256 43 -448 123
-667 42 -119 129 -303 142 -303 5 0 12 37 14 83 7 135 58 220 163 275 42 22
63 26 130 27 71 0 89 -4 155 -35 59 -27 87 -34 135 -34 62 0 182 21 200 35 6
4 12 25 13 46 2 20 5 40 8 43 10 9 127 1 138 -10 6 -6 11 -34 11 -63 0 -50 1
-52 25 -49 13 2 30 11 36 20 17 23 47 139 40 150 -3 6 -36 15 -73 21 -38 7
-120 26 -183 42 -134 36 -169 34 -239 -11 -27 -17 -65 -34 -85 -37 -32 -5 -40
-1 -76 35 -39 39 -40 41 -40 110 0 69 0 71 -37 99 -21 16 -77 55 -125 86 -161
104 -298 257 -298 333 0 13 -4 25 -9 29 -5 3 -54 12 -108 20 -83 12 -101 18
-120 40 -33 37 -29 69 13 115 20 22 34 43 31 47 -4 3 -55 9 -113 13 -100 6
-108 8 -130 34 -17 18 -24 40 -24 67 0 30 -10 52 -44 99 -88 120 -109 237 -51
287 36 32 65 29 116 -12 51 -40 59 -42 59 -16 0 14 -9 21 -31 26 -36 8 -72 59
-63 90 11 35 65 84 113 101 27 9 91 18 156 21 99 5 117 3 182 -20 68 -23 73
-24 88 -8 8 10 15 22 15 28 0 19 58 96 81 109 57 31 104 -3 119 -85 6 -30 17
-66 26 -79 21 -32 59 -27 184 26 52 22 131 48 175 56 44 9 90 18 103 21 20 5
22 11 22 73 0 109 -6 120 -148 260 -164 162 -231 260 -296 436 -25 70 -53 155
-61 189 -17 73 -20 291 -5 387 56 351 252 652 490 752 131 54 196 45 233 -35
24 -49 22 -63 -18 -145 l-35 -73 50 -46 c82 -76 78 -124 -23 -241 -56 -65
-130 -186 -155 -255 -9 -24 -16 -77 -16 -122 -1 -72 3 -88 33 -148 34 -71 125
-171 169 -188 17 -7 56 0 145 26 154 45 403 92 555 105 64 6 169 15 232 21
166 15 387 -3 679 -56 47 -8 100 -12 119 -9 43 8 94 61 129 133 24 49 27 67
27 146 -2 150 -45 243 -168 364 -77 75 -116 137 -116 182 0 24 20 66 54 113
l18 26 -40 67 c-51 86 -56 105 -42 148 13 39 68 92 106 101 35 9 139 -13 194
-41 60 -30 203 -138 259 -195 63 -64 156 -211 192 -303 16 -43 44 -135 62
-205 28 -114 32 -142 32 -272 0 -119 -4 -159 -22 -225 -57 -205 -161 -402
-290 -548 -104 -117 -112 -137 -106 -261 3 -55 9 -105 13 -109 4 -4 23 0 43 9
36 17 38 17 85 -5 l49 -23 44 23 c83 42 180 21 247 -56 45 -50 62 -88 76 -164
l12 -66 54 -28 c140 -72 213 -215 144 -283 -21 -22 -31 -25 -62 -20 -110 19
-107 20 -146 -14 -38 -34 -45 -54 -22 -63 7 -3 139 -1 292 5 154 6 407 11 564
12 311 1 322 -1 364 -57 20 -27 20 -28 3 -60 -10 -19 -32 -41 -48 -51 -33 -20
-339 -119 -494 -161 -55 -14 -163 -46 -240 -70 -77 -24 -212 -64 -300 -89 -88
-25 -212 -62 -275 -82 -79 -25 -142 -37 -200 -41 -75 -4 -91 -9 -136 -38 -133
-87 -294 -144 -475 -170 -135 -20 -147 -28 -130 -84 6 -22 16 -43 21 -46 5 -3
51 -14 102 -25 160 -35 239 -89 302 -207 35 -65 53 -73 100 -48 29 16 43 16
128 6 164 -19 224 -15 296 19 107 51 202 55 298 15 26 -10 41 -12 48 -5 16 16
25 12 19 -11 -4 -14 4 -30 25 -52 16 -18 39 -50 49 -71 l20 -39 26 44 c14 24
41 76 61 114 20 39 36 64 36 58 0 -7 -25 -79 -55 -160 -30 -80 -54 -148 -52
-150 8 -7 79 160 116 272 64 197 96 388 105 629 3 71 7 130 9 132 6 6 176 55
206 59 14 2 40 7 57 10 30 7 31 5 37 -32 13 -74 7 -239 -13 -371 -11 -74 -20
-136 -20 -138 0 -8 -36 9 -46 22 -9 11 -21 -25 -53 -156 -23 -93 -62 -227 -87
-297 -61 -169 -63 -179 -30 -187 17 -4 26 -13 26 -26 0 -98 152 175 244 438
19 53 47 126 63 162 35 77 79 201 89 250 7 38 23 74 30 67 8 -8 -24 -221 -50
-327 -36 -155 -87 -302 -155 -452 -34 -73 -61 -137 -61 -141 0 -4 30 -7 68 -5
l67 3 32 60 c55 102 135 317 178 480 50 191 75 396 75 632 0 199 1 214 21 248
21 35 21 38 6 68 -9 18 -26 43 -37 57 -11 14 -33 78 -50 150 -79 324 -203 602
-380 850 -26 36 -68 103 -95 150 -183 322 -430 596 -696 773 -84 56 -90 65
-94 149 -8 172 -131 425 -279 574 -78 78 -208 174 -291 215 -50 24 -83 33
-138 37 -69 4 -74 3 -122 -29z m-150 -657 c22 -6 57 -13 78 -16 65 -12 40 -22
-75 -33 -104 -9 -120 -8 -208 13 -52 13 -126 26 -164 30 -49 4 -65 9 -55 16
17 11 367 3 424 -10z m-430 -131 c-6 -5 -28 -14 -50 -21 -22 -7 -90 -32 -151
-56 -83 -32 -150 -49 -265 -69 -85 -14 -205 -39 -268 -55 -124 -33 -160 -38
-126 -17 88 52 511 194 655 220 48 8 214 7 205 -2z m409 -127 c51 -20 -22 -32
-95 -17 l-34 7 35 7 c50 9 76 10 94 3z m336 -18 c37 -17 21 -31 -30 -28 -42 3
-80 24 -80 44 0 10 76 0 110 -16z m-454 -15 c187 -32 420 -96 473 -130 11 -7
11 -15 1 -47 -18 -56 -57 -104 -99 -121 -34 -15 -96 -11 -221 14 -8 1 -35 5
-60 8 -25 3 -54 8 -65 10 -19 4 -62 7 -241 20 -45 3 -128 2 -185 -4 -57 -5
-149 -13 -204 -16 -55 -3 -118 -8 -140 -11 -140 -19 -292 -49 -393 -76 -166
-45 -201 -46 -241 -13 -34 30 -91 107 -91 125 0 17 172 95 321 144 155 51 319
90 475 110 158 22 509 15 670 -13z m1401 -320 c39 -42 36 -51 -9 -23 -30 18
-68 68 -68 88 0 9 34 -20 77 -65z m-171 -113 c78 -74 104 -107 131 -163 18
-38 33 -76 33 -83 0 -8 -32 15 -71 49 -38 35 -103 90 -142 123 -40 32 -75 63
-79 70 -17 26 -1 96 22 96 5 0 53 -42 106 -92z m-11 -127 c206 -163 428 -435
560 -683 103 -196 249 -578 228 -599 -5 -4 -75 -9 -157 -11 l-149 -3 -51 135
c-84 220 -188 411 -317 582 -59 77 -234 260 -340 355 l-47 42 70 140 70 141
32 -22 c17 -12 62 -47 101 -77z m-3411 -48 c-128 -125 -189 -195 -270 -313
-58 -84 -169 -199 -180 -187 -7 7 43 98 94 172 111 160 262 311 407 408 74 50
60 27 -51 -80z m186 -43 c11 -21 20 -45 20 -52 0 -7 27 -51 60 -97 l61 -83
-84 -92 c-45 -50 -102 -115 -126 -143 -34 -42 -49 -53 -72 -53 -43 0 -78 -21
-131 -80 l-47 -52 -73 6 c-110 10 -148 17 -148 27 0 26 119 215 209 334 70 92
288 325 304 325 4 0 16 -18 27 -40z m3813 -232 c31 -42 80 -139 73 -145 -4 -4
-34 40 -95 140 -28 45 -11 49 22 5z m-121 -128 c48 -79 118 -214 118 -227 0
-4 -17 21 -38 57 -21 36 -57 93 -80 127 -23 34 -45 77 -49 95 -7 41 -5 39 49
-52z m-4623 -1218 c13 -81 33 -178 43 -217 11 -44 20 -124 23 -215 3 -80 8
-158 10 -173 3 -18 1 -27 -6 -25 -27 9 -111 297 -128 438 -17 132 -14 286 5
315 9 14 19 25 23 25 3 0 17 -66 30 -148z m4363 -268 c-3 -68 -44 -284 -53
-284 -8 0 -13 25 -22 100 -4 29 11 97 49 223 11 37 29 10 26 -39z m-3785 -91
c-3 -10 -5 -2 -5 17 0 19 2 27 5 18 2 -10 2 -26 0 -35z m3110 -109 c-11 -11
39 -108 92 -179 89 -118 90 -147 8 -169 -29 -7 -72 -18 -97 -24 -25 -6 -52
-13 -61 -17 -11 -4 -39 15 -90 62 -97 90 -151 126 -240 161 -88 35 -99 60 -34
79 196 56 443 107 422 87z"/>
<path d="M4240 6782 c-23 -8 -39 -34 -40 -62 0 -15 24 -59 60 -110 34 -47 60
-93 58 -103 -2 -12 -16 -24 -37 -31 -45 -15 -76 -56 -67 -91 4 -14 53 -72 110
-129 86 -87 107 -113 129 -168 59 -148 62 -312 9 -421 -33 -67 -96 -139 -141
-161 -30 -15 -85 -10 -286 23 -244 39 -412 46 -663 27 -298 -23 -457 -51 -708
-126 -77 -23 -119 -31 -139 -26 -39 10 -181 150 -210 206 -106 208 -56 429
151 660 29 33 54 67 54 75 0 25 -37 54 -85 66 -42 11 -45 14 -45 44 0 20 17
65 41 110 25 48 39 87 37 103 -3 24 -8 27 -45 30 -95 7 -285 -137 -385 -291
-139 -211 -204 -581 -144 -813 30 -116 105 -288 163 -374 63 -92 169 -204 257
-270 64 -49 72 -67 80 -197 3 -51 9 -116 12 -146 l6 -54 -79 5 c-95 5 -162
-10 -318 -73 -134 -54 -171 -57 -219 -15 -38 34 -54 72 -58 137 -2 24 -7 42
-12 40 -17 -6 -68 -118 -73 -160 -8 -71 -9 -71 -59 -36 -96 66 -216 91 -333
69 -70 -12 -141 -38 -141 -50 0 -4 33 -10 74 -13 52 -4 89 -13 127 -32 70 -36
161 -105 156 -119 -5 -14 -76 -11 -124 5 -19 6 -50 25 -69 42 -25 21 -38 27
-46 19 -15 -15 -2 -74 27 -116 34 -50 32 -58 -12 -50 -86 15 -174 62 -218 116
l-27 33 5 -52 c5 -63 49 -141 125 -220 l53 -56 -33 -27 -32 -27 139 -6 c156
-6 320 -41 430 -93 l60 -28 -150 -7 c-119 -5 -162 -11 -207 -28 -75 -29 -77
-51 -5 -51 60 0 182 -28 277 -62 89 -33 252 -129 240 -142 -9 -8 -216 41 -266
63 -24 11 -44 17 -44 14 0 -22 60 -100 117 -152 54 -49 230 -171 357 -246 16
-9 16 -13 1 -48 -20 -49 -17 -126 7 -141 13 -8 28 -3 70 26 29 20 71 44 94 53
40 16 43 15 155 -19 137 -41 202 -54 323 -62 l92 -7 -33 -82 c-18 -45 -36 -96
-39 -112 -6 -30 -5 -30 46 -37 45 -6 60 -3 123 26 62 29 82 33 152 33 72 0 86
-3 137 -32 68 -39 78 -40 233 -30 66 4 170 3 230 -2 l110 -9 75 36 c69 34 82
37 160 37 73 0 92 -4 138 -28 44 -23 68 -28 141 -31 l89 -3 -10 29 c-15 42
-88 101 -149 120 -30 9 -88 22 -129 28 -41 7 -82 16 -91 21 -29 15 -70 125
-72 192 l-2 62 55 7 c30 3 96 11 145 18 197 24 353 81 468 168 46 35 51 37
130 37 86 0 92 2 832 225 88 27 219 65 290 85 138 38 368 111 398 127 15 7 16
12 6 24 -14 17 -275 19 -608 4 -119 -5 -326 -14 -459 -20 -134 -6 -246 -9
-249 -6 -6 6 36 83 85 156 46 68 99 100 166 100 37 0 56 -5 72 -21 28 -27 35
-14 19 35 -27 77 -106 133 -202 143 -45 5 -53 9 -47 22 16 38 16 132 0 176
-19 48 -72 101 -112 111 -32 8 -91 -1 -111 -17 -12 -11 -9 -14 19 -23 33 -11
33 -12 33 -73 0 -53 -4 -66 -30 -99 -31 -38 -92 -77 -106 -68 -4 2 -1 20 7 39
29 70 11 161 -43 218 -40 40 -57 36 -49 -13 4 -26 1 -53 -10 -78 -14 -36 -20
-40 -67 -50 -29 -6 -55 -7 -59 -4 -4 4 -8 115 -10 248 -3 273 -8 253 88 354
65 69 157 198 194 270 48 95 108 254 120 318 9 42 11 113 7 215 -5 130 -10
166 -36 253 -55 185 -89 257 -169 362 -119 158 -368 314 -452 284z m157 -68
c84 -40 210 -153 278 -249 117 -163 182 -362 191 -585 6 -122 4 -146 -19 -248
-15 -62 -36 -129 -47 -148 -12 -18 -37 -66 -57 -106 -52 -108 -99 -173 -190
-268 -45 -47 -86 -97 -92 -111 -6 -16 -7 -133 -4 -300 8 -370 -10 -548 -71
-726 -54 -158 -130 -244 -280 -316 -112 -54 -114 -54 -366 -98 -158 -28 -209
-32 -345 -32 -234 1 -371 27 -527 102 -78 37 -121 81 -193 196 -126 201 -253
693 -255 990 -1 82 -20 113 -115 185 -188 142 -329 372 -379 615 -29 142 -29
209 -2 370 14 83 34 176 45 207 52 149 157 304 263 386 90 69 208 114 208 79
0 -7 -12 -29 -26 -50 -39 -58 -64 -118 -64 -156 0 -34 23 -71 44 -71 26 0 86
-22 86 -31 0 -6 -15 -29 -34 -52 -73 -90 -175 -255 -192 -313 -26 -85 -25
-240 3 -315 42 -115 179 -273 254 -295 40 -12 135 6 294 56 123 38 365 75 590
89 242 16 531 -1 832 -48 74 -11 106 -4 152 35 50 43 115 145 135 214 21 69
20 197 -2 280 -26 99 -85 194 -179 290 -99 101 -104 122 -36 155 24 12 48 26
54 32 15 15 -10 71 -72 160 -53 77 -59 96 -31 112 24 15 66 5 149 -35z m-2643
-2271 c20 -24 24 -33 13 -33 -21 0 -67 57 -66 83 0 21 1 21 12 3 7 -11 25 -34
41 -53z m-323 36 c36 -13 62 -29 55 -36 -6 -6 -115 27 -121 38 -8 12 25 11 66
-2z m3705 -193 c22 -17 23 -16 -66 -36 -30 -7 -89 -25 -129 -41 -41 -16 -77
-27 -79 -25 -9 9 62 76 101 94 50 25 144 29 173 8z m-3518 -226 c15 0 22 -3
17 -7 -6 -5 -59 -6 -120 -4 -82 3 -101 6 -75 12 19 4 62 6 94 3 32 -2 70 -4
84 -4z m4537 -129 c6 -11 -85 -41 -252 -86 l-102 -28 -53 21 c-29 12 -84 27
-123 33 -78 13 -112 26 -98 40 7 7 203 17 570 27 28 1 54 -2 58 -7z m-690 -21
c3 -5 1 -10 -4 -10 -6 0 -11 5 -11 10 0 6 2 10 4 10 3 0 8 -4 11 -10z m15 -34
c36 -10 99 -23 141 -31 42 -7 87 -19 100 -25 21 -12 19 -14 -42 -37 -122 -46
-330 -105 -347 -98 -43 18 -178 45 -221 45 -43 0 -111 16 -111 26 0 2 14 25
30 51 17 26 30 55 30 64 0 14 11 19 53 22 110 9 302 0 367 -17z m-3807 -93
c-7 -2 -19 -2 -25 0 -7 3 -2 5 12 5 14 0 19 -2 13 -5z m3392 -73 c62 -13 155
-54 155 -69 0 -9 -107 -38 -241 -66 -42 -8 -108 -26 -148 -40 -39 -13 -71 -22
-71 -19 0 14 218 212 230 209 8 -2 42 -9 75 -15z m225 -45 c-15 -18 -51 -16
-58 3 -2 8 8 12 33 12 33 0 36 -2 25 -15z"/>
<path d="M3978 4500 c-44 -13 -113 -66 -140 -107 -14 -22 -38 -72 -53 -113
-66 -179 -11 -382 119 -441 59 -27 148 -25 212 5 117 55 203 226 191 384 -10
144 -66 238 -157 261 -57 15 -143 20 -172 11z"/>
<path d="M2887 4424 c-89 -28 -155 -117 -164 -223 -10 -107 41 -278 102 -343
100 -108 238 -140 344 -82 122 66 165 186 126 352 -33 138 -106 243 -197 282
-67 29 -149 34 -211 14z"/>
<path d="M2969 2777 c-24 -13 -57 -31 -73 -40 -22 -12 -45 -15 -91 -10 -40 4
-84 0 -126 -10 -50 -12 -119 -15 -314 -13 l-250 2 -68 37 c-86 47 -147 50
-224 12 -72 -36 -106 -89 -111 -171 -3 -35 1 -85 7 -111 14 -55 12 -57 -66
-89 -71 -29 -84 -30 -153 -3 -84 33 -188 31 -264 -4 -69 -32 -85 -33 -134 -8
-55 28 -135 34 -221 18 -63 -12 -81 -12 -125 -1 -59 16 -175 9 -218 -12 -65
-33 -86 -108 -53 -189 13 -31 15 -78 11 -298 -2 -144 -7 -281 -11 -305 -15
-89 30 -135 151 -156 42 -8 80 -20 85 -27 5 -8 9 -37 9 -65 0 -118 62 -219
163 -268 121 -58 388 -77 604 -42 136 21 164 20 258 -10 167 -54 227 -45 307
47 61 69 86 75 117 26 30 -48 91 -104 135 -122 21 -9 61 -32 88 -50 87 -60
164 -68 249 -25 50 26 77 25 119 -3 49 -33 89 -45 178 -53 53 -5 90 -14 117
-30 23 -13 61 -30 85 -39 72 -25 117 -63 167 -139 112 -170 158 -216 218 -216
59 0 124 61 219 207 53 81 104 126 167 148 24 9 61 26 84 39 29 17 63 25 125
30 70 5 98 12 158 43 69 34 76 36 105 24 100 -41 119 -45 176 -33 31 7 74 25
98 42 23 17 63 40 87 51 60 26 101 62 132 114 41 71 65 69 119 -6 20 -28 52
-57 77 -70 52 -27 111 -23 247 17 l94 27 151 -19 c330 -42 565 -11 674 89 59
55 81 102 95 205 l13 87 49 27 c73 39 95 69 95 127 0 27 -7 65 -15 84 -11 27
-15 76 -15 191 l0 155 56 42 c68 50 93 99 94 183 0 74 -27 134 -72 161 -31 19
-54 20 -338 22 -244 2 -315 0 -356 -12 -46 -13 -57 -13 -105 1 -41 13 -70 15
-124 8 -147 -16 -255 -3 -273 34 -5 10 -5 47 1 87 12 88 -1 142 -49 195 -45
50 -107 74 -176 68 -51 -4 -67 -10 -139 -53 -32 -19 -53 -20 -294 -21 -200 -1
-269 2 -300 13 -25 8 -73 13 -125 12 -80 -2 -88 0 -136 30 -92 58 -179 55
-265 -10 -46 -35 -59 -40 -89 -35 -152 26 -329 26 -496 0 -36 -5 -45 -3 -76
25 -74 65 -161 79 -239 38z m152 -118 c26 -26 23 -86 -6 -105 -16 -11 -25 -11
-45 -1 -33 17 -35 61 -3 65 17 3 21 0 17 -12 -3 -9 -1 -16 5 -16 17 0 13 38
-5 48 -26 14 -61 2 -73 -25 -10 -21 -8 -33 9 -69 31 -63 80 -84 196 -83 49 0
98 4 109 8 19 8 19 8 -2 19 -29 16 -38 58 -18 88 29 44 134 25 135 -25 1 -9 7
-1 15 17 29 67 114 72 154 9 12 -18 21 -27 21 -20 0 23 32 43 69 43 72 0 100
-52 53 -99 -28 -28 -28 -30 -8 -35 42 -11 197 -6 229 8 97 40 120 169 31 169
-26 0 -44 -17 -44 -40 0 -7 7 -13 15 -13 9 0 12 6 9 15 -4 10 0 15 14 15 40 0
35 -62 -7 -73 -34 -8 -61 19 -61 63 0 46 26 70 78 70 103 0 123 -120 34 -206
l-37 -36 60 6 c33 3 89 8 125 11 63 6 140 34 96 35 -29 0 -56 30 -56 61 0 32
40 69 75 69 28 0 75 -36 75 -57 0 -11 5 -10 18 7 20 24 52 19 52 -10 0 -16 6
-15 73 7 64 22 81 24 152 17 44 -4 130 -8 190 -8 61 -1 116 -5 123 -9 15 -10
16 -53 2 -62 -46 -28 114 -35 170 -7 29 14 36 23 38 54 3 31 -1 40 -24 54 -24
16 -29 16 -53 3 -30 -17 -41 -49 -17 -49 9 0 16 7 16 15 0 25 29 17 36 -10 8
-34 -11 -55 -52 -55 -23 0 -37 6 -44 19 -16 31 -12 76 11 105 17 22 28 26 70
26 69 0 99 -30 99 -97 0 -30 -7 -56 -18 -69 -65 -78 -236 -71 -439 20 -45 20
-92 36 -105 36 -21 -1 -21 -2 -5 -11 22 -13 39 -56 32 -79 -7 -23 -68 -52 -89
-44 -44 17 -39 78 6 87 22 4 21 4 -2 6 -14 0 -79 -15 -143 -34 -215 -63 -254
-69 -462 -68 -182 0 -217 4 -336 39 -11 3 -15 -2 -15 -18 1 -19 -4 -23 -29
-23 -24 0 -31 5 -33 23 -3 21 -5 21 -25 7 -31 -21 -67 -19 -94 7 -19 18 -23
19 -17 5 8 -23 -13 -47 -42 -47 -19 0 -24 5 -24 26 0 19 -4 24 -17 20 -118
-34 -156 -39 -333 -40 -196 -1 -244 6 -430 61 -134 40 -166 46 -194 39 -16 -4
-26 -13 -26 -25 0 -22 29 -36 44 -21 7 7 3 10 -13 10 -30 0 -22 24 9 28 31 5
53 -23 39 -49 -17 -32 -45 -41 -78 -25 -48 25 -54 64 -16 101 23 24 23 25 4
25 -11 0 -62 -18 -114 -40 -177 -75 -300 -91 -385 -47 -103 52 -82 197 29 197
53 0 69 -7 86 -41 33 -62 6 -113 -57 -107 -30 3 -33 6 -33 38 0 25 5 36 18 38
12 3 17 -3 17 -19 0 -22 1 -23 18 -5 16 16 16 18 -7 37 -28 23 -40 24 -68 4
-44 -31 -33 -88 22 -110 34 -15 156 -21 168 -9 3 4 0 13 -8 21 -20 19 -19 37
2 54 11 10 49 14 127 15 61 0 147 4 191 8 71 7 88 5 151 -17 59 -20 71 -22 70
-10 0 8 7 20 17 27 15 9 21 7 36 -10 l17 -22 10 21 c15 34 57 53 91 41 37 -13
59 -58 44 -90 -12 -28 -55 -41 -76 -24 -17 14 -20 56 -5 65 6 3 10 -3 10 -15
0 -15 5 -20 18 -18 28 5 21 42 -9 46 -36 4 -55 -21 -41 -53 23 -49 80 -68 252
-79 l85 -6 -28 24 c-71 58 -90 144 -42 191 32 32 96 34 126 4z m-764 -346 c15
-22 15 -26 -4 -51 -30 -40 -46 -34 -55 18 -5 25 -6 50 -4 57 7 18 45 3 63 -24z
m2133 13 c0 -32 -18 -43 -38 -23 -13 13 -13 19 -2 31 19 24 40 19 40 -8z
m-3034 -55 c52 -24 97 -78 126 -155 31 -82 33 -281 4 -366 -64 -186 -198 -263
-325 -187 -102 61 -164 283 -126 453 48 218 177 320 321 255z m1266 -17 c163
-116 171 -505 12 -659 -104 -102 -244 -73 -315 65 -37 72 -52 145 -52 250 1
174 60 304 163 361 53 29 138 22 192 -17z m1666 -79 c34 -59 73 -126 86 -149
13 -22 57 -99 97 -169 l74 -129 3 154 c2 84 0 199 -3 256 -7 97 -8 102 -31
108 -13 3 -24 12 -24 19 0 10 19 13 75 13 52 -1 75 -5 75 -13 0 -7 -9 -15 -20
-18 -20 -5 -20 -14 -20 -350 0 -367 -3 -386 -44 -334 -20 24 -180 288 -224
367 -10 19 -34 62 -53 95 l-34 60 -3 -145 c-1 -80 1 -192 5 -250 7 -96 10
-106 31 -115 46 -20 21 -30 -80 -32 -177 -3 -173 -6 -301 212 l-77 130 0 -138
c0 -138 8 -177 35 -177 8 0 15 -6 15 -13 0 -11 -19 -14 -80 -13 -57 1 -80 5
-80 14 0 6 7 12 15 12 23 0 26 47 23 365 l-3 300 -23 10 c-40 18 -17 30 61 31
56 1 77 -2 77 -11 0 -7 -9 -15 -20 -18 -19 -5 -20 -13 -20 -144 0 -96 3 -133
10 -123 6 8 40 63 76 122 63 104 71 125 63 158 -3 12 8 15 60 15 43 0 66 -4
68 -12 3 -8 -4 -13 -14 -13 -26 0 -50 -28 -122 -140 -104 -162 -99 -139 -45
-233 81 -140 173 -274 199 -291 15 -10 36 -16 48 -14 l22 3 3 345 c1 190 4
351 7 358 10 27 31 4 93 -103z m1018 99 l54 -15 0 -85 c0 -65 -3 -84 -14 -84
-9 0 -16 16 -20 44 -11 68 -62 106 -145 106 -66 0 -111 -37 -142 -118 -30 -76
-32 -248 -5 -337 37 -118 98 -185 175 -193 78 -7 81 -2 81 149 l0 128 -31 16
c-17 9 -28 19 -25 22 10 10 160 5 164 -5 1 -5 -6 -12 -18 -15 -19 -5 -20 -13
-20 -150 0 -144 0 -146 -26 -166 -14 -11 -49 -25 -78 -31 -194 -40 -333 143
-313 414 19 259 156 380 363 320z m942 1 l152 0 0 -68 c0 -51 -3 -68 -12 -65
-7 3 -14 17 -16 32 -4 31 -33 46 -93 46 l-39 0 0 -297 c0 -164 3 -308 6 -321
4 -12 17 -25 31 -28 13 -4 22 -11 20 -18 -5 -16 -167 -15 -167 2 0 6 6 12 14
12 8 0 17 7 20 16 3 9 6 155 6 325 l0 309 -52 0 c-64 0 -73 -6 -83 -47 -3 -18
-11 -33 -16 -33 -11 0 -12 38 -3 104 l7 46 36 -7 c20 -5 105 -8 189 -8z
m-5608 -10 c0 -7 -9 -15 -20 -18 -19 -5 -20 -14 -20 -141 l0 -136 120 0 120 0
0 104 c0 134 -6 165 -37 177 -43 16 -14 28 64 26 74 -2 108 -18 63 -30 -20 -5
-20 -11 -20 -329 0 -338 1 -348 43 -348 10 0 17 -5 14 -12 -2 -9 -28 -13 -83
-13 -95 0 -104 3 -73 26 23 17 23 23 27 183 l4 166 -121 0 -121 0 0 -156 c0
-155 7 -194 35 -194 8 0 15 -6 15 -13 0 -11 -19 -14 -80 -13 -57 1 -80 5 -80
14 0 6 6 12 14 12 20 0 26 87 26 365 0 267 -4 305 -32 312 -10 3 -18 11 -18
18 0 10 21 13 80 13 58 0 80 -4 80 -13z m1098 -2 c2 -8 -5 -13 -16 -13 -11 0
-23 -7 -26 -16 -8 -21 -6 -560 3 -599 6 -29 9 -30 65 -33 66 -3 75 2 85 49 4
18 13 35 20 37 11 4 12 -8 6 -59 -4 -35 -12 -70 -17 -77 -13 -15 -271 -9 -276
8 -2 5 3 10 12 10 9 0 18 10 21 23 3 12 4 161 3 331 -3 331 0 308 -47 333 -1
1 0 6 3 11 9 15 158 10 164 -5z m362 1 c0 -8 -9 -14 -19 -14 -17 0 -20 -10
-27 -67 -8 -77 0 -540 11 -565 7 -17 56 -26 107 -20 21 3 29 10 34 30 12 53
15 62 26 62 15 0 2 -131 -14 -141 -17 -11 -272 -2 -276 9 -1 5 6 12 18 15 20
5 20 11 20 336 l0 331 -26 10 c-44 17 -17 28 66 28 61 0 80 -4 80 -14z m830 0
c0 -8 -7 -14 -15 -14 -21 0 -19 -34 11 -207 14 -81 30 -177 35 -213 11 -76 24
-95 34 -48 6 33 17 77 75 320 16 70 30 134 30 142 0 19 19 31 30 20 5 -5 20
-61 34 -124 14 -63 40 -182 58 -264 17 -82 33 -145 35 -140 12 41 83 441 83
472 0 32 -4 41 -21 45 -42 11 -7 26 61 25 53 0 70 -4 70 -14 0 -8 -6 -14 -14
-14 -31 0 -30 4 -151 -585 -20 -99 -29 -128 -42 -132 -14 -5 -18 11 -78 277
-65 293 -57 278 -84 158 -87 -380 -108 -454 -127 -436 -6 7 -26 98 -49 223 -7
44 -23 130 -35 190 -11 61 -25 137 -31 170 -15 91 -27 121 -55 134 -42 19 -18
29 66 29 61 0 80 -4 80 -14z m1938 -1 c2 -8 -5 -13 -16 -13 -29 0 -32 -32 -31
-319 1 -301 5 -342 37 -356 41 -18 16 -30 -63 -29 -75 0 -111 15 -65 27 20 5
20 11 20 337 0 323 -1 332 -20 337 -11 3 -20 11 -20 19 0 18 151 15 158 -3z
m768 5 c3 -5 -3 -12 -15 -15 -26 -7 -33 -54 -29 -183 l3 -95 118 -3 117 -3 0
125 c0 139 -4 156 -32 156 -11 0 -18 5 -16 13 7 18 158 20 158 1 0 -8 -6 -14
-14 -14 -8 0 -16 -17 -20 -46 -8 -61 -8 -449 0 -548 6 -70 9 -77 31 -82 13 -4
22 -11 20 -18 -5 -16 -159 -14 -165 2 -2 7 3 12 11 12 24 0 27 23 27 191 l0
159 -120 0 -120 0 1 -117 c1 -65 4 -143 7 -173 6 -48 10 -55 30 -58 13 -2 21
-9 19 -15 -5 -15 -159 -15 -164 0 -2 6 5 13 17 16 20 5 20 11 20 336 l0 331
-25 6 c-25 6 -31 15 -19 27 10 9 154 5 160 -5z m-2020 -101 c3 -13 4 -142 2
-288 -3 -234 -5 -268 -21 -298 -19 -33 -20 -33 -71 -27 -72 8 -113 24 -119 45
-6 23 87 486 109 540 28 72 85 87 100 28z m2109 -43 c0 -19 -5 -29 -15 -29
-16 0 -25 28 -16 51 10 25 31 10 31 -22z m-3861 10 c3 -9 6 -75 6 -148 0 -97
-4 -137 -14 -151 -12 -16 -16 -17 -30 -6 -13 11 -16 37 -16 151 0 151 3 170
30 170 10 0 21 -7 24 -16z m3344 -77 c5 -23 -15 -47 -39 -47 -14 0 -19 7 -19
28 0 16 3 32 7 36 13 13 48 1 51 -17z m850 -39 c19 -19 17 -328 -3 -354 -15
-19 -15 -19 -35 5 -18 21 -20 38 -20 173 0 84 5 158 10 169 12 22 30 25 48 7z
m-1980 -67 c-2 -38 -6 -46 -23 -46 -27 0 -46 41 -34 74 24 61 62 42 57 -28z
m1652 -180 c11 -22 13 -61 4 -85 -14 -37 -54 -4 -54 44 0 26 17 60 30 60 5 0
14 -9 20 -19z m-1329 -142 c8 -21 9 -33 1 -41 -14 -14 -67 65 -58 88 6 16 8
15 25 0 11 -10 25 -31 32 -47z m-1581 -84 c11 -30 4 -52 -22 -66 -49 -26 -78
26 -38 69 27 29 48 28 60 -3z m-1341 -84 c12 -22 -9 -115 -30 -136 -8 -8 -33
-17 -56 -21 -38 -6 -45 -3 -73 24 -31 32 -39 72 -17 90 17 14 129 60 149 61
10 1 22 -7 27 -18z m3510 5 c25 -30 -22 -76 -59 -56 -28 15 -25 37 8 54 34 19
37 19 51 2z m-3771 -25 c44 -6 56 -28 12 -23 -29 4 -87 9 -112 11 -10 0 -18 8
-18 17 0 14 6 15 38 9 20 -4 56 -10 80 -14z m4580 2 c2 -7 -4 -16 -13 -19 -21
-8 -68 13 -60 27 9 14 67 7 73 -8z m-4862 -18 c31 -20 58 -79 50 -111 -13 -52
-68 -70 -114 -38 -25 17 -29 56 -8 73 11 9 15 6 20 -14 4 -14 13 -25 21 -25
36 0 30 59 -10 80 -51 27 -104 -27 -90 -92 12 -51 68 -94 147 -112 73 -17 240
-22 203 -6 -78 32 -100 126 -35 149 40 14 78 -1 86 -34 8 -31 -12 -57 -40 -53
-14 2 -22 12 -24 28 -4 21 -2 22 12 11 23 -19 34 -4 13 16 -16 16 -18 16 -33
1 -28 -28 -10 -66 42 -90 76 -33 281 -25 429 16 28 8 44 15 37 15 -7 1 -24 12
-37 26 -19 18 -25 35 -25 70 0 67 31 95 104 95 48 0 57 -3 80 -31 14 -17 26
-41 26 -53 0 -27 -34 -66 -59 -66 -27 0 -54 35 -46 59 8 27 21 27 28 1 6 -24
25 -26 34 -3 8 21 -31 53 -66 53 -52 0 -77 -38 -55 -82 33 -65 159 -63 439 6
105 26 231 52 280 58 127 15 299 4 434 -26 130 -30 173 -32 191 -11 17 21 5
45 -22 44 -18 -1 -19 -2 -5 -6 23 -6 17 -28 -8 -28 -26 0 -43 30 -29 53 16 25
56 26 82 2 12 -11 22 -17 22 -12 0 10 53 29 106 38 46 7 143 -17 167 -41 13
-12 17 -11 33 6 29 33 69 49 118 49 56 0 84 -10 118 -44 16 -17 29 -23 33 -16
23 38 164 56 238 31 43 -15 45 -23 15 -67 -41 -60 -141 -108 -185 -89 -14 6
-10 9 17 15 54 9 111 42 137 76 l24 32 -24 4 c-21 4 -23 1 -19 -20 3 -17 -1
-30 -13 -38 -20 -15 -45 -8 -45 13 0 9 -11 4 -31 -16 -19 -19 -41 -31 -57 -31
l-27 0 0 -98 c0 -96 0 -98 23 -94 15 3 22 0 22 -12 0 -14 4 -15 21 -5 12 6 29
9 39 6 12 -3 17 0 14 8 -3 7 -23 15 -44 19 -65 10 -57 26 13 26 67 0 121 18
168 55 40 32 42 42 9 53 -28 10 -29 10 -17 -9 15 -24 -1 -53 -33 -57 -31 -5
-47 13 -30 33 18 21 -2 19 -27 -4 -27 -26 -78 -51 -101 -51 -26 0 -44 24 -40
52 4 33 53 33 52 1 0 -13 1 -23 3 -23 10 0 49 25 72 46 15 14 39 24 56 24 l30
1 -30 14 c-32 14 -27 18 19 15 36 -2 116 -36 116 -49 0 -24 -105 -102 -157
-117 l-54 -16 40 -20 c76 -37 77 -57 5 -84 -39 -15 -39 -15 -5 -9 18 3 53 5
78 5 44 0 44 0 29 22 -9 12 -16 30 -16 40 0 14 -8 18 -34 18 -18 0 -39 7 -46
15 -11 13 -6 15 39 15 76 0 127 24 135 63 3 17 25 53 47 80 l41 48 -38 -7
c-111 -23 -183 25 -140 91 30 46 111 40 104 -7 -4 -29 -34 -46 -50 -30 -10 10
-10 15 2 22 12 8 11 10 -6 10 -28 0 -38 -25 -18 -45 21 -21 54 -19 185 12 102
24 134 27 299 27 189 0 231 -6 425 -59 162 -45 231 -57 311 -53 71 3 86 6 108
27 47 44 25 101 -39 101 -37 0 -65 -21 -65 -51 0 -26 26 -24 34 3 4 17 8 20
17 11 19 -19 2 -62 -27 -69 -59 -15 -88 73 -39 121 20 20 34 25 77 25 56 -1
77 -11 96 -47 27 -50 1 -122 -51 -139 -50 -16 163 -55 303 -56 115 0 172 14
199 49 26 32 26 49 2 63 -15 8 -24 6 -37 -7 -12 -12 -13 -18 -4 -21 7 -3 16 2
21 9 6 11 9 10 15 -5 14 -35 -48 -50 -66 -16 -24 45 38 92 88 68 20 -10 28
-22 30 -45 4 -41 -11 -69 -51 -93 l-32 -20 73 0 c174 0 279 51 289 140 5 52
-8 76 -49 85 -21 5 -33 1 -53 -19 -30 -30 -30 -61 0 -61 13 0 21 8 23 23 4 26
17 29 26 6 24 -64 -43 -109 -102 -68 -49 34 -13 142 54 164 79 26 147 -14 159
-93 14 -91 -49 -171 -157 -197 -129 -31 -421 -22 -641 21 -111 21 -137 23
-137 9 0 -5 6 -7 14 -4 17 7 28 -9 20 -29 -8 -22 -42 -28 -59 -10 -18 17 -20
54 -3 71 9 9 6 12 -16 12 -23 0 -27 -3 -21 -18 18 -43 16 -52 -13 -82 -34 -34
-66 -38 -94 -13 -22 19 -24 66 -4 83 21 17 60 9 64 -13 3 -15 0 -18 -17 -12
-17 5 -21 2 -21 -14 0 -25 31 -29 50 -6 31 37 -12 65 -150 101 -208 54 -380
19 -380 -76 0 -52 50 -81 80 -45 15 17 10 47 -9 53 -10 3 -12 -1 -8 -17 4 -17
1 -21 -11 -19 -39 8 -19 68 22 68 35 0 50 -16 50 -56 0 -49 -31 -74 -90 -74
-36 0 -47 5 -61 26 -9 15 -17 41 -17 59 0 31 -1 31 -25 18 -15 -7 -32 -13 -39
-13 -6 0 6 -16 28 -36 33 -30 40 -43 40 -74 0 -49 -35 -80 -91 -80 -67 0 -104
66 -62 112 30 33 103 14 103 -26 0 -20 -38 -49 -55 -43 -20 8 -19 27 2 27 13
0 14 3 5 12 -10 9 -16 9 -28 -4 -14 -14 -14 -17 1 -32 35 -35 85 -11 85 42 0
48 -114 102 -214 102 -112 0 -318 -52 -343 -87 -19 -24 -16 -50 7 -73 16 -16
33 -20 83 -20 76 0 111 16 115 52 4 31 -27 53 -58 43 -20 -6 -28 -45 -10 -45
6 0 10 7 10 15 0 18 17 20 23 3 7 -19 -12 -48 -30 -48 -23 0 -53 29 -53 51 0
10 11 30 24 45 18 22 32 28 60 27 43 -1 61 -14 74 -52 13 -36 -7 -83 -44 -108
-30 -19 -105 -22 -247 -9 -68 7 -71 6 -49 -9 39 -29 18 -85 -28 -70 -20 6 -29
45 -10 45 6 0 10 5 10 11 0 12 -125 7 -137 -5 -4 -4 3 -13 15 -22 28 -19 28
-58 2 -84 -24 -24 -53 -26 -74 -4 -19 19 -20 25 -3 48 15 20 48 19 55 -2 2 -8
-2 -12 -11 -10 -9 2 -16 -1 -16 -7 -2 -18 34 -10 37 9 4 21 -13 36 -41 36 -31
0 -87 -63 -87 -99 0 -23 5 -31 18 -31 13 0 14 2 3 9 -15 10 -7 31 13 31 8 0
19 -7 26 -15 10 -12 9 -20 -4 -40 -9 -14 -24 -25 -32 -25 -10 0 -14 -6 -11
-15 5 -11 0 -13 -23 -9 -22 5 -31 2 -40 -15 -12 -23 -6 -41 13 -41 7 0 6 4 -3
10 -12 7 -12 12 -2 22 10 10 15 9 27 -3 20 -20 11 -42 -30 -73 -19 -15 -36
-39 -40 -56 -9 -39 -18 -38 -38 6 -10 20 -31 47 -48 61 -35 30 -37 68 -3 67
15 0 20 4 17 14 -4 10 -15 12 -35 8 -24 -5 -29 -3 -24 9 3 10 -1 15 -12 15
-39 0 -60 61 -25 74 23 9 43 -12 23 -24 -13 -8 -12 -10 3 -10 26 0 31 24 12
64 -31 64 -110 91 -110 36 0 -16 6 -26 18 -28 10 -2 17 3 17 12 0 10 -6 13
-15 10 -17 -7 -21 11 -5 21 19 12 50 -6 50 -29 0 -50 -56 -62 -89 -20 -12 15
-21 33 -21 40 0 14 23 40 42 47 25 9 0 18 -66 24 -65 6 -79 0 -54 -25 19 -19
-16 -51 -40 -36 -26 17 -26 50 0 68 22 16 18 16 -72 9 -187 -16 -237 -6 -266
49 -20 38 -17 63 10 94 45 53 136 26 136 -41 0 -37 -15 -55 -47 -55 -26 0 -39
21 -29 47 6 14 8 14 21 -3 14 -18 14 -18 15 2 0 12 -7 25 -16 28 -24 9 -54
-12 -54 -39 0 -37 35 -55 108 -55 53 0 67 4 87 25 47 46 25 77 -76 109 -214
67 -401 55 -463 -31 -17 -24 -18 -29 -5 -52 25 -45 103 -32 85 14 -6 17 -36
21 -36 5 0 -5 8 -10 17 -10 16 0 16 -1 1 -16 -12 -13 -20 -14 -37 -5 -23 13
-28 50 -9 69 32 32 108 -3 108 -50 0 -66 -107 -94 -155 -42 -14 15 -25 35 -25
46 0 30 26 73 56 93 l27 17 -33 14 c-42 18 -40 19 -40 -15 0 -15 -9 -40 -21
-55 -28 -36 -95 -37 -128 -2 -26 28 -26 83 0 99 35 22 87 -12 73 -48 -8 -20
-36 -19 -32 1 4 23 -18 29 -26 8 -8 -21 20 -54 45 -54 26 0 51 42 44 73 -22
88 -186 115 -380 63 -107 -28 -148 -51 -153 -84 -4 -23 33 -41 50 -24 13 13 1
33 -16 26 -20 -8 -28 12 -11 26 20 17 62 5 70 -21 7 -22 -17 -66 -41 -76 -9
-3 -31 1 -50 10 -38 19 -52 55 -35 93 10 22 9 24 -16 24 -21 0 -24 -3 -15 -12
33 -33 -10 -99 -50 -77 -10 5 -18 19 -18 30 0 16 4 19 23 14 18 -6 20 -5 10 6
-11 10 -34 9 -130 -9 -284 -54 -597 -56 -698 -5 -89 45 -127 133 -95 217 23
61 114 82 176 41z m4611 4 c37 -12 47 -32 32 -62 -24 -45 -41 -57 -85 -57 -34
0 -47 5 -63 26 -26 33 -28 89 -4 103 18 10 67 6 120 -10z m-3571 0 c9 -15 -14
-29 -48 -29 -21 0 -28 5 -28 20 0 16 7 20 34 20 19 0 38 -5 42 -11z"/>
<path d="M3502 2588 c-8 -10 0 -13 34 -13 38 0 42 2 27 13 -9 6 -24 12 -34 12
-9 0 -21 -6 -27 -12z"/>
<path d="M4274 2565 c-8 -19 10 -40 25 -31 6 4 11 14 11 22 0 8 5 12 10 9 14
-9 12 -48 -2 -65 -11 -12 -10 -12 5 0 12 9 17 24 15 44 -2 25 -8 32 -31 34
-18 2 -29 -2 -33 -13z"/>
<path d="M2129 2547 c6 -6 11 -19 11 -29 0 -22 4 -22 55 2 22 10 33 19 25 20
-8 0 -34 5 -58 9 -31 6 -41 6 -33 -2z"/>
<path d="M3337 2553 c-13 -12 -7 -33 9 -33 13 0 14 3 5 13 -6 8 -8 17 -4 20 3
4 4 7 1 7 -2 0 -8 -3 -11 -7z"/>
<path d="M3376 2549 c7 -8 14 -23 17 -34 4 -13 5 -9 4 9 -1 16 -9 32 -17 34
-12 4 -13 2 -4 -9z"/>
<path d="M3670 2546 c-8 -11 -9 -20 -1 -33 9 -16 10 -15 11 9 0 14 6 29 13 31
7 4 8 6 1 6 -6 1 -17 -6 -24 -13z"/>
<path d="M3714 2540 c0 -11 5 -19 11 -17 5 2 10 10 10 17 0 7 -5 15 -10 17 -6
2 -11 -6 -11 -17z"/>
<path d="M4885 2546 l-50 -11 43 -18 c51 -21 53 -21 46 -3 -3 7 2 21 11 30 19
18 18 18 -50 2z"/>
<path d="M2097 2543 c-13 -12 -7 -23 11 -22 10 0 12 3 4 6 -6 2 -10 9 -6 14 6
10 0 12 -9 2z"/>
<path d="M3484 2536 c-13 -34 4 -47 53 -44 44 3 48 5 48 28 0 23 -4 25 -48 28
-35 2 -49 -1 -53 -12z"/>
<path d="M2681 2533 c-1 -6 -13 -16 -28 -21 l-28 -9 33 -7 c40 -9 41 -8 31 24
-4 14 -7 20 -8 13z"/>
<path d="M4378 2516 c-6 -28 0 -30 42 -16 23 7 24 8 3 9 -12 1 -26 8 -31 17
-8 14 -10 12 -14 -10z"/>
<path d="M3440 2491 c0 -6 4 -13 10 -16 6 -3 7 1 4 9 -7 18 -14 21 -14 7z"/>
<path d="M3610 2478 c-12 -22 -12 -22 6 -6 10 10 15 20 12 24 -4 3 -12 -5 -18
-18z"/>
<path d="M4650 2482 c0 -16 -4 -20 -17 -15 -15 5 -16 3 -5 -8 10 -11 15 -10
29 4 13 13 15 20 5 29 -9 9 -12 7 -12 -10z"/>
<path d="M3500 2460 c20 -13 57 -13 65 0 4 6 -11 10 -37 10 -31 0 -39 -3 -28
-10z"/>
<path d="M1278 2207 c-82 -82 -101 -323 -39 -488 26 -67 66 -112 115 -129 31
-10 42 -9 73 7 76 37 110 152 100 345 -9 196 -68 298 -174 298 -35 0 -48 -6
-75 -33z m108 -158 c26 -29 34 -233 10 -264 -20 -28 -47 -10 -63 41 -17 58
-16 179 2 214 18 36 26 37 51 9z"/>
<path d="M2514 2205 c-43 -46 -65 -117 -71 -235 -9 -180 41 -324 130 -368 41
-21 51 -22 82 -12 44 14 77 62 100 143 13 46 16 87 12 185 -5 158 -22 216 -81
277 -39 41 -47 45 -91 45 -42 0 -52 -4 -81 -35z m110 -154 c32 -36 41 -210 14
-263 -14 -29 -44 -21 -59 15 -19 44 -19 228 0 250 17 22 24 21 45 -2z"/>
<path d="M3467 1392 c-16 -9 -38 -34 -49 -56 l-20 -39 24 6 c57 15 137 18 188
9 30 -6 57 -8 60 -6 9 10 -27 59 -59 81 -41 28 -104 30 -144 5z"/>
<path d="M3273 1359 c39 -37 42 -39 49 -19 8 22 28 26 45 9 7 -7 13 -7 17 0 8
13 -19 28 -69 36 -22 3 -50 8 -62 11 -17 3 -13 -4 20 -37z"/>
<path d="M3786 1389 c-71 -11 -106 -28 -99 -46 5 -13 7 -13 15 1 17 30 55 18
49 -16 -2 -16 18 -7 36 15 10 12 29 30 43 40 13 9 20 16 15 16 -6 -1 -32 -5
-59 -10z"/>
<path d="M3168 1383 c-23 -6 -23 -16 2 -38 19 -17 20 -17 14 -2 -3 10 -1 24 6
32 13 15 9 16 -22 8z"/>
<path d="M3110 1347 c0 -48 -65 -71 -149 -52 l-35 7 32 -40 c18 -22 41 -60 52
-85 16 -36 26 -46 58 -55 22 -7 61 -12 88 -12 45 -1 48 -2 30 -15 -11 -8 -35
-15 -55 -15 -19 0 -32 -3 -28 -6 3 -4 0 -22 -8 -40 l-14 -34 38 0 c21 0 54 -2
72 -5 34 -5 34 -5 -6 10 -65 25 -66 33 -6 74 30 22 38 23 80 13 31 -7 50 -7
58 0 18 15 43 2 43 -21 0 -27 -33 -35 -67 -18 -27 14 -28 14 -28 -10 0 -24 2
-25 48 -20 26 4 47 2 47 -2 0 -13 -49 -31 -88 -32 l-37 -1 47 -13 c93 -25 177
-92 179 -142 0 -14 3 -12 10 7 34 84 128 77 129 -10 1 -23 2 -22 16 10 8 19
25 45 37 58 28 31 102 68 153 78 l39 8 -54 7 c-29 4 -60 14 -69 23 -14 14 -11
15 38 9 45 -5 52 -4 47 9 -3 9 0 21 6 27 16 16 3 14 -37 -6 -34 -16 -37 -15
-55 1 -19 17 -20 17 -30 -21 -16 -58 -78 -114 -135 -120 -109 -13 -177 66
-201 231 -6 40 -9 43 -22 31 -28 -28 -51 -21 -143 42 -14 9 -20 11 -13 4 17
-20 4 -41 -26 -42 -24 -1 -23 -2 14 -20 26 -12 62 -19 103 -19 34 0 62 -4 62
-9 0 -15 -81 -23 -127 -13 -80 18 -182 94 -170 126 8 19 67 45 112 48 l35 2
-28 31 c-15 16 -30 34 -34 40 -5 5 -8 -3 -8 -18z"/>
<path d="M4498 1342 c-49 -4 -118 -65 -121 -107 -2 -29 -1 -30 58 -37 101 -13
165 8 165 53 0 29 -44 53 -70 39 -22 -12 -23 -31 -2 -38 7 -2 12 6 12 18 0 19
2 20 15 10 32 -26 13 -60 -34 -60 -23 0 -51 31 -51 57 0 54 100 74 145 28 14
-13 25 -33 25 -44 0 -20 2 -19 38 5 20 14 49 28 65 31 63 13 33 20 -193 46 -8
1 -32 1 -52 -1z"/>
<path d="M2378 1327 c-38 -5 -68 -13 -68 -18 0 -5 7 -9 16 -9 20 0 84 -37 102
-58 10 -14 12 -11 12 14 0 42 36 74 82 74 50 0 68 -9 79 -38 14 -36 -12 -72
-51 -72 -37 0 -55 29 -36 55 12 17 13 17 19 -5 3 -12 10 -19 16 -15 18 10 13
33 -9 40 -28 9 -60 -12 -60 -38 0 -39 21 -57 70 -59 68 -3 133 1 148 11 22 13
-10 75 -54 105 -34 23 -48 26 -119 25 -44 -1 -110 -6 -147 -12z"/>
<path d="M2705 1307 c19 -19 38 -49 41 -66 5 -26 12 -31 43 -36 20 -3 66 -14
104 -24 62 -17 67 -17 67 -1 0 9 -15 35 -32 59 -42 53 -117 91 -198 98 l-61 6
36 -36z"/>
<path d="M3241 1326 c-7 -8 -19 -12 -27 -9 -8 3 -14 2 -14 -1 0 -12 84 -46
113 -46 16 0 26 -4 22 -10 -10 -15 -56 -11 -100 9 -35 15 -45 16 -75 5 l-35
-12 30 -1 c18 -1 45 -13 65 -30 41 -33 93 -54 72 -29 -19 23 12 47 39 30 21
-13 22 -13 33 39 5 24 3 25 -25 21 -23 -3 -37 2 -58 22 -24 23 -30 25 -40 12z"/>
<path d="M4278 1326 c-56 -15 -129 -72 -151 -118 -20 -41 -11 -45 62 -25 31 9
72 19 93 22 30 5 38 11 47 38 7 17 26 46 43 64 l32 33 -40 -1 c-21 0 -60 -6
-86 -13z"/>
<path d="M3443 1281 c-24 -4 -44 -9 -47 -12 -2 -2 -6 -24 -10 -49 l-6 -45 155
0 155 0 0 42 c0 31 -5 45 -19 53 -25 13 -175 21 -228 11z"/>
<path d="M3093 1248 c-28 -14 -29 -20 -1 -44 20 -18 21 -18 15 -1 -4 10 -2 27
3 38 6 10 9 19 8 18 -2 0 -13 -5 -25 -11z"/>
<path d="M3921 1214 c0 -11 3 -14 6 -6 3 7 2 16 -1 19 -3 4 -6 -2 -5 -13z"/>
<path d="M3393 1105 c2 -26 8 -49 11 -53 11 -11 126 -19 194 -14 69 5 75 11
87 75 l7 37 -152 0 -153 0 6 -45z"/>
<path d="M3196 1061 c-14 -16 -15 -19 -2 -24 9 -4 16 3 19 19 5 29 5 29 -17 5z"/>
<path d="M3858 1067 c8 -9 11 -21 7 -27 -7 -12 5 -13 23 -1 14 8 7 16 -28 36
-13 8 -13 6 -2 -8z"/>
<path d="M3458 981 c19 -16 46 -31 60 -34 33 -6 99 20 113 44 9 18 4 19 -98
19 l-108 -1 33 -28z"/>
<path d="M3523 873 c-22 -8 -14 -18 18 -20 26 -2 29 0 19 12 -13 16 -17 17
-37 8z"/>
<path d="M3500 815 c0 -11 11 -15 40 -15 29 0 40 4 40 15 0 11 -11 15 -40 15
-29 0 -40 -4 -40 -15z"/>
<path d="M3593 773 c-20 -54 -82 -57 -109 -5 l-11 22 -11 -25 c-10 -22 -9 -25
7 -25 10 0 25 -8 34 -18 19 -20 23 -77 7 -87 -6 -4 -3 -15 7 -29 l17 -23 17
21 c13 16 14 25 6 43 -16 36 14 93 49 93 20 0 24 3 16 13 -5 6 -12 21 -14 32
-3 16 -6 14 -15 -12z"/>
<path d="M3514 765 c25 -19 31 -19 46 0 11 13 7 15 -26 15 -36 -1 -38 -2 -20
-15z"/>
</g>
</svg>
